<!-- Apache-2.0 section 4(b): modified from upstream by the Sybil fork. -->
<!-- Sybil mark retained under the upstream AppIcons.vizor asset key. -->
<svg width="24" height="24" viewBox="0 0 24 24" fill="none" xmlns="http://www.w3.org/2000/svg">
  <path d="M5.1 4H19.2L16.9 7H8.2C7.2 7 6.5 7.6 6.5 8.4C6.5 9.1 7.1 9.5 8.1 9.8L15.9 12C18.3 12.7 19.5 14 19.5 16.1C19.5 18.7 17.3 20 14.5 20H4L6.2 17H14.2C15.3 17 16 16.6 16 15.9C16 15.2 15.4 14.8 14.4 14.5L6.3 12.2C3.9 11.5 2.5 10.1 2.5 8C2.5 5.5 4.3 4 5.1 4Z" fill="#E1E1E1"/>
  <circle cx="19.3" cy="4.1" r="0.9" fill="#E1E1E1"/>
</svg>
